<svg xmlns="http://www.w3.org/2000/svg" viewBox="0 0 1200 320" role="img" aria-label="zendeurr profile header, terminal chart">
  <defs>
    <filter id="maGlow" x="-60%" y="-60%" width="220%" height="220%">
      <feGaussianBlur in="SourceGraphic" stdDeviation="2.2" result="b"/>
      <feColorMatrix in="b" type="matrix" values="1 0 0 0 0  0 1 0 0 0  0 0 1 0 0  0 0 0 0.9 0" result="b2"/>
      <feMerge>
        <feMergeNode in="b2"/>
        <feMergeNode in="SourceGraphic"/>
      </feMerge>
    </filter>
    <clipPath id="chartClip">
      <rect x="32" y="36" width="560" height="200" rx="2"/>
    </clipPath>
  </defs>
  <style>
    @import url("https://fonts.googleapis.com/css2?family=Share+Tech+Mono&amp;display=swap");
    .mono { font-family: "Share Tech Mono", ui-monospace, monospace; }
    .fade { opacity: 0; animation: fadeIn 0.75s ease forwards; }
    .fd0 { animation-delay: 0.05s; }
    .fd1 { animation-delay: 0.18s; }
    .fd2 { animation-delay: 0.32s; }
    .fd3 { animation-delay: 0.46s; }
    .fd4 { animation-delay: 0.6s; }
    .fd5 { animation-delay: 0.74s; }
    @keyframes fadeIn {
      from { opacity: 0; transform: translateY(6px); }
      to { opacity: 1; transform: translateY(0); }
    }
    .cursor { animation: blink 1.05s step-end infinite; }
    @keyframes blink { 50% { opacity: 0; } }
    .pulseTag { animation: pulseTag 2.1s ease-in-out infinite; transform-origin: center; }
    @keyframes pulseTag {
      0%, 100% { opacity: 1; }
      50% { opacity: 0.72; transform: scale(1.04); }
    }
    .maGlow { filter: url(#maGlow); }
  </style>
  <rect width="1200" height="320" fill="#080b0f"/>
  <g class="fade fd0" stroke="#1a222c" stroke-width="1" opacity="0.55">
    <line x1="0" y1="48" x2="1200" y2="48"/>
    <line x1="0" y1="88" x2="1200" y2="88"/>
    <line x1="0" y1="128" x2="1200" y2="128"/>
    <line x1="0" y1="168" x2="1200" y2="168"/>
    <line x1="0" y1="208" x2="1200" y2="208"/>
    <line x1="0" y1="248" x2="1200" y2="248"/>
    <line x1="80" y1="0" x2="80" y2="280"/>
    <line x1="200" y1="0" x2="200" y2="280"/>
    <line x1="320" y1="0" x2="320" y2="280"/>
    <line x1="440" y1="0" x2="440" y2="280"/>
    <line x1="560" y1="0" x2="560" y2="280"/>
    <line x1="680" y1="0" x2="680" y2="280"/>
    <line x1="800" y1="0" x2="800" y2="280"/>
    <line x1="920" y1="0" x2="920" y2="280"/>
    <line x1="1040" y1="0" x2="1040" y2="280"/>
  </g>
  <g class="fade fd1" clip-path="url(#chartClip)">
    <g stroke="#2a3a4a" stroke-width="1.2">
      <line x1="92" y1="120" x2="92" y2="168"/>
      <rect x="86" y="132" width="12" height="28" fill="#00c853" stroke="none"/>
      <line x1="152" y1="140" x2="152" y2="188"/>
      <rect x="146" y="148" width="12" height="36" fill="#3d5a4a" stroke="none"/>
      <line x1="212" y1="150" x2="212" y2="118"/>
      <rect x="206" y="118" width="12" height="30" fill="#00ff6a" stroke="none"/>
      <line x1="272" y1="128" x2="272" y2="98"/>
      <rect x="266" y="98" width="12" height="28" fill="#00c853" stroke="none"/>
      <line x1="332" y1="104" x2="332" y2="132"/>
      <rect x="326" y="104" width="12" height="26" fill="#00ff6a" stroke="none"/>
      <line x1="392" y1="138" x2="392" y2="168"/>
      <rect x="386" y="142" width="12" height="24" fill="#2f6f4f" stroke="none"/>
      <line x1="452" y1="160" x2="452" y2="112"/>
      <rect x="446" y="112" width="12" height="46" fill="#00ff6a" stroke="none"/>
      <line x1="512" y1="118" x2="512" y2="88"/>
      <rect x="506" y="88" width="12" height="28" fill="#00c853" stroke="none"/>
    </g>
    <polyline class="maGlow" fill="none" stroke="#00ff6a" stroke-width="2.2" stroke-linecap="round" stroke-linejoin="round"
      points="92,158 152,168 212,142 272,118 332,112 392,152 452,128 512,102"/>
  </g>
  <g class="fade fd2">
    <rect x="468" y="96" width="118" height="26" rx="2" fill="#0d1117" stroke="#1f2a35" stroke-width="1"/>
    <text x="477" y="114" class="mono" fill="#00ff6a" font-size="12">LAST</text>
    <text x="527" y="114" class="mono pulseTag" fill="#00ff6a" font-size="13" font-weight="700">98,420.12</text>
  </g>
  <g class="fade fd3">
    <text x="620" y="138" class="mono" fill="#00ff6a" font-size="52" letter-spacing="2">zendeurr</text>
    <text x="620" y="178" class="mono" fill="#00D4FF" font-size="17" letter-spacing="3">TRADE &#183; BUILD &#183; ITERATE</text>
    <rect x="902" y="158" width="10" height="22" fill="#00ff6a" class="cursor"/>
  </g>
  <g class="fade fd4">
    <rect x="0" y="268" width="1200" height="52" fill="#0a0e14" stroke="#13202b" stroke-width="1"/>
    <rect x="0" y="268" width="1200" height="1" fill="#1a222c"/>
    <text x="36" y="300" class="mono" fill="#6b7c8c" font-size="13">TICK</text>
    <text x="88" y="300" class="mono" fill="#00ff6a" font-size="14">BTC</text>
    <text x="132" y="300" class="mono" fill="#8fa3b8" font-size="14">98,420.12</text>
    <text x="268" y="300" class="mono" fill="#00ff6a" font-size="14">ETH</text>
    <text x="312" y="300" class="mono" fill="#8fa3b8" font-size="14">3,842.55</text>
    <text x="448" y="300" class="mono" fill="#00ff6a" font-size="14">SOL</text>
    <text x="492" y="300" class="mono" fill="#8fa3b8" font-size="14">178.93</text>
    <text x="900" y="300" class="mono" fill="#3d5166" font-size="12">LIVE &#183; UTC</text>
  </g>
  <g class="fade fd5" opacity="0.35" stroke="#00c853" stroke-width="1">
    <line x1="600" y1="40" x2="600" y2="252"/>
  </g>
</svg>
